<svg xmlns="http://www.w3.org/2000/svg" viewBox="0 0 7410 3900" role="img" aria-label="United States flag">
  <rect width="7410" height="3900" rx="280" fill="#b22234"/>
  <g fill="#fff">
    <rect y="300" width="7410" height="300"/>
    <rect y="900" width="7410" height="300"/>
    <rect y="1500" width="7410" height="300"/>
    <rect y="2100" width="7410" height="300"/>
    <rect y="2700" width="7410" height="300"/>
    <rect y="3300" width="7410" height="300"/>
  </g>
  <rect width="2964" height="2100" fill="#3c3b6e"/>
  <g fill="#fff">
    <circle cx="370" cy="260" r="80"/>
    <circle cx="740" cy="520" r="80"/>
    <circle cx="1110" cy="260" r="80"/>
    <circle cx="1480" cy="520" r="80"/>
    <circle cx="1850" cy="260" r="80"/>
    <circle cx="2220" cy="520" r="80"/>
    <circle cx="2590" cy="260" r="80"/>
    <circle cx="370" cy="1040" r="80"/>
    <circle cx="740" cy="1300" r="80"/>
    <circle cx="1110" cy="1040" r="80"/>
    <circle cx="1480" cy="1300" r="80"/>
    <circle cx="1850" cy="1040" r="80"/>
    <circle cx="2220" cy="1300" r="80"/>
    <circle cx="2590" cy="1040" r="80"/>
    <circle cx="370" cy="1820" r="80"/>
    <circle cx="740" cy="1560" r="80"/>
    <circle cx="1110" cy="1820" r="80"/>
    <circle cx="1480" cy="1560" r="80"/>
    <circle cx="1850" cy="1820" r="80"/>
    <circle cx="2220" cy="1560" r="80"/>
    <circle cx="2590" cy="1820" r="80"/>
  </g>
</svg>
